<?xml version="1.0" encoding="utf-8"?>
<!-- Generator: Adobe Illustrator 27.5.0, SVG Export Plug-In . SVG Version: 6.00 Build 0)  -->
<svg version="1.1" xmlns="http://www.w3.org/2000/svg" xmlns:xlink="http://www.w3.org/1999/xlink" x="0px" y="0px"
	 viewBox="0 0 1000 1000" style="enable-background:new 0 0 1000 1000;" xml:space="preserve">
<g id="background">
	<linearGradient id="SVGID_1_" gradientUnits="userSpaceOnUse" x1="1070" y1="500" x2="-306.28" y2="500">
		<stop  offset="0.014" style="stop-color:#070623"/>
		<stop  offset="0.3417" style="stop-color:#0D0625"/>
		<stop  offset="0.6694" style="stop-color:#19052A"/>
		<stop  offset="0.7354" style="stop-color:#1C052B"/>
		<stop  offset="0.7888" style="stop-color:#26042F"/>
		<stop  offset="0.8379" style="stop-color:#370436"/>
		<stop  offset="0.8843" style="stop-color:#4F033F"/>
		<stop  offset="0.9289" style="stop-color:#6E024B"/>
		<stop  offset="0.9715" style="stop-color:#930059"/>
		<stop  offset="0.9821" style="stop-color:#9E005D"/>
	</linearGradient>
	<polygon style="fill:url(#SVGID_1_);" points="0,1000 0,0 1000,0 1000,1000 	"/>
</g>
<g id="object">
	<g>
		<g>
			<g>
				
					<linearGradient id="SVGID_00000158000658524838658700000011405108668821079213_" gradientUnits="userSpaceOnUse" x1="468.3508" y1="501.0779" x2="531.6492" y2="501.0779">
					<stop  offset="0" style="stop-color:#3DDEED"/>
					<stop  offset="0.9966" style="stop-color:#CB00DD"/>
				</linearGradient>
				<path style="fill:url(#SVGID_00000158000658524838658700000011405108668821079213_);" d="M531.649,670.591h-63.298
					l30.092-339.027h3.116L531.649,670.591z M471.768,667.463h56.463L500,349.396L471.768,667.463z"/>
			</g>
		</g>
		<g>
			<g>
				
					<linearGradient id="SVGID_00000107552761802914397090000007599049853792996797_" gradientUnits="userSpaceOnUse" x1="465.0116" y1="501.0839" x2="534.9884" y2="501.0839">
					<stop  offset="0" style="stop-color:#3DDEED"/>
					<stop  offset="0.9966" style="stop-color:#CB00DD"/>
				</linearGradient>
				<path style="fill:url(#SVGID_00000107552761802914397090000007599049853792996797_);" d="M534.988,675.819h-69.977
					l33.432-349.47h3.114L534.988,675.819z M468.454,672.69h63.093L500,342.924L468.454,672.69z"/>
			</g>
		</g>
		<g>
			<g>
				
					<linearGradient id="SVGID_00000044895724134315139910000005423013358468223145_" gradientUnits="userSpaceOnUse" x1="461.3027" y1="493.5439" x2="538.6963" y2="493.5439">
					<stop  offset="0" style="stop-color:#3DDEED"/>
					<stop  offset="0.9966" style="stop-color:#CB00DD"/>
				</linearGradient>
				<path style="fill:url(#SVGID_00000044895724134315139910000005423013358468223145_);" d="M538.696,681.208h-77.394L500,305.88
					L538.696,681.208z M464.77,678.08h70.458L500,336.384L464.77,678.08z"/>
			</g>
		</g>
		<g>
			<g>
				
					<linearGradient id="SVGID_00000060739569749632499470000011183213505477798066_" gradientUnits="userSpaceOnUse" x1="457.1824" y1="494.1005" x2="542.8176" y2="494.1005">
					<stop  offset="0" style="stop-color:#3DDEED"/>
					<stop  offset="0.9966" style="stop-color:#CB00DD"/>
				</linearGradient>
				<path style="fill:url(#SVGID_00000060739569749632499470000011183213505477798066_);" d="M542.818,686.764h-85.635L500,301.437
					L542.818,686.764z M460.677,683.636h78.645L500,329.764L460.677,683.636z"/>
			</g>
		</g>
		<g>
			<g>
				
					<linearGradient id="SVGID_00000170280818488364616830000015085069989864545445_" gradientUnits="userSpaceOnUse" x1="452.6038" y1="494.6175" x2="547.3962" y2="494.6175">
					<stop  offset="0" style="stop-color:#3DDEED"/>
					<stop  offset="0.9966" style="stop-color:#CB00DD"/>
				</linearGradient>
				<path style="fill:url(#SVGID_00000170280818488364616830000015085069989864545445_);" d="M547.396,692.492h-94.792L500,296.743
					L547.396,692.492z M456.129,689.364h87.741L500,323.051L456.129,689.364z"/>
			</g>
		</g>
		<g>
			<g>
				
					<linearGradient id="SVGID_00000153674400865263218480000008308991085944855986_" gradientUnits="userSpaceOnUse" x1="447.5171" y1="495.0979" x2="552.4829" y2="495.0979">
					<stop  offset="0" style="stop-color:#3DDEED"/>
					<stop  offset="0.9966" style="stop-color:#CB00DD"/>
				</linearGradient>
				<path style="fill:url(#SVGID_00000153674400865263218480000008308991085944855986_);" d="M552.483,698.397H447.517L500,291.799
					L552.483,698.397z M451.075,695.268h97.849L500,316.237L451.075,695.268z"/>
			</g>
		</g>
		<g>
			<g>
				
					<linearGradient id="SVGID_00000048467319353893075270000012019823756301192847_" gradientUnits="userSpaceOnUse" x1="441.8662" y1="495.5445" x2="558.1348" y2="495.5445">
					<stop  offset="0" style="stop-color:#3DDEED"/>
					<stop  offset="0.9966" style="stop-color:#CB00DD"/>
				</linearGradient>
				<path style="fill:url(#SVGID_00000048467319353893075270000012019823756301192847_);" d="M558.135,704.485H441.866L500,286.604
					L558.135,704.485z M445.46,701.356h109.081L500,309.309L445.46,701.356z"/>
			</g>
		</g>
		<g>
			<g>
				
					<linearGradient id="SVGID_00000134946915647544845210000001342652088481595039_" gradientUnits="userSpaceOnUse" x1="435.587" y1="495.9594" x2="564.413" y2="495.9594">
					<stop  offset="0" style="stop-color:#3DDEED"/>
					<stop  offset="0.9966" style="stop-color:#CB00DD"/>
				</linearGradient>
				<path style="fill:url(#SVGID_00000134946915647544845210000001342652088481595039_);" d="M564.413,710.761H435.587L500,281.158
					L564.413,710.761z M439.219,707.632h121.563L500,302.256L439.219,707.632z"/>
			</g>
		</g>
		<g>
			<g>
				
					<linearGradient id="SVGID_00000002350056466427529030000011802993404303538093_" gradientUnits="userSpaceOnUse" x1="428.6102" y1="496.3453" x2="571.3898" y2="496.3453">
					<stop  offset="0" style="stop-color:#3DDEED"/>
					<stop  offset="0.9966" style="stop-color:#CB00DD"/>
				</linearGradient>
				<path style="fill:url(#SVGID_00000002350056466427529030000011802993404303538093_);" d="M571.39,717.23H428.61L500,275.46
					L571.39,717.23z M432.284,714.102h135.431L500,295.071L432.284,714.102z"/>
			</g>
		</g>
		<g>
			<g>
				
					<linearGradient id="SVGID_00000163776651424865972940000006547131864851352213_" gradientUnits="userSpaceOnUse" x1="420.8584" y1="496.7043" x2="579.1416" y2="496.7043">
					<stop  offset="0" style="stop-color:#3DDEED"/>
					<stop  offset="0.9966" style="stop-color:#CB00DD"/>
				</linearGradient>
				<path style="fill:url(#SVGID_00000163776651424865972940000006547131864851352213_);" d="M579.142,723.901H420.858L500,269.508
					L579.142,723.901z M424.579,720.772H575.42L500,287.741L424.579,720.772z"/>
			</g>
		</g>
		<g>
			<g>
				
					<linearGradient id="SVGID_00000103987703757992665250000010021606656710428597_" gradientUnits="userSpaceOnUse" x1="412.2471" y1="497.0379" x2="587.7529" y2="497.0379">
					<stop  offset="0" style="stop-color:#3DDEED"/>
					<stop  offset="0.9966" style="stop-color:#CB00DD"/>
				</linearGradient>
				<path style="fill:url(#SVGID_00000103987703757992665250000010021606656710428597_);" d="M587.753,730.777H412.247L500,263.299
					L587.753,730.777z M416.017,727.648h167.966L500,280.256L416.017,727.648z"/>
			</g>
		</g>
		<g>
			<g>
				
					<linearGradient id="SVGID_00000084509712057136332170000011583293177219256767_" gradientUnits="userSpaceOnUse" x1="402.6786" y1="497.3488" x2="597.3214" y2="497.3488">
					<stop  offset="0" style="stop-color:#3DDEED"/>
					<stop  offset="0.9966" style="stop-color:#CB00DD"/>
				</linearGradient>
				<path style="fill:url(#SVGID_00000084509712057136332170000011583293177219256767_);" d="M597.321,737.867H402.679L500,256.831
					L597.321,737.867z M406.504,734.738h186.993L500,272.607L406.504,734.738z"/>
			</g>
		</g>
		<g>
			<g>
				
					<linearGradient id="SVGID_00000013151668614399905050000007976559040556787074_" gradientUnits="userSpaceOnUse" x1="392.0479" y1="497.6375" x2="607.9521" y2="497.6375">
					<stop  offset="0" style="stop-color:#3DDEED"/>
					<stop  offset="0.9966" style="stop-color:#CB00DD"/>
				</linearGradient>
				<path style="fill:url(#SVGID_00000013151668614399905050000007976559040556787074_);" d="M607.952,745.174H392.048L500,250.101
					L607.952,745.174z M395.932,742.046h208.136L500,264.784L395.932,742.046z"/>
			</g>
		</g>
		<g>
			<g>
				
					<linearGradient id="SVGID_00000073721766749822611110000015625033244415769759_" gradientUnits="userSpaceOnUse" x1="380.2369" y1="497.9063" x2="619.7631" y2="497.9063">
					<stop  offset="0" style="stop-color:#3DDEED"/>
					<stop  offset="0.9966" style="stop-color:#CB00DD"/>
				</linearGradient>
				<path style="fill:url(#SVGID_00000073721766749822611110000015625033244415769759_);" d="M619.763,752.709H380.237L500,243.103
					L619.763,752.709z M384.186,749.581h231.628L500,256.778L384.186,749.581z"/>
			</g>
		</g>
		<g>
			<g>
				
					<linearGradient id="SVGID_00000083065942773766945860000008726424636311861148_" gradientUnits="userSpaceOnUse" x1="367.1133" y1="498.1563" x2="632.8867" y2="498.1563">
					<stop  offset="0" style="stop-color:#3DDEED"/>
					<stop  offset="0.9966" style="stop-color:#CB00DD"/>
				</linearGradient>
				<path style="fill:url(#SVGID_00000083065942773766945860000008726424636311861148_);" d="M632.887,760.476H367.113L500,235.836
					L632.887,760.476z M371.134,757.348h257.732L500,248.577L371.134,757.348z"/>
			</g>
		</g>
		<g>
			<g>
				
					<linearGradient id="SVGID_00000115501544284167985950000011687306034745394585_" gradientUnits="userSpaceOnUse" x1="352.5333" y1="498.389" x2="647.4666" y2="498.389">
					<stop  offset="0" style="stop-color:#3DDEED"/>
					<stop  offset="0.9966" style="stop-color:#CB00DD"/>
				</linearGradient>
				<path style="fill:url(#SVGID_00000115501544284167985950000011687306034745394585_);" d="M647.467,768.484H352.533L500,228.294
					L647.467,768.484z M356.63,765.355h286.739L500,240.174L356.63,765.355z"/>
			</g>
		</g>
		<g>
			<g>
				
					<linearGradient id="SVGID_00000046333329686905764930000015821215120367450505_" gradientUnits="userSpaceOnUse" x1="336.3342" y1="498.6054" x2="663.6668" y2="498.6054">
					<stop  offset="0" style="stop-color:#3DDEED"/>
					<stop  offset="0.9966" style="stop-color:#CB00DD"/>
				</linearGradient>
				<path style="fill:url(#SVGID_00000046333329686905764930000015821215120367450505_);" d="M663.667,776.739H336.334L500,220.472
					L663.667,776.739z M340.516,773.61h318.97L500,231.556L340.516,773.61z"/>
			</g>
		</g>
		<g>
			<g>
				
					<linearGradient id="SVGID_00000013910459749031513490000005609024028825302408_" gradientUnits="userSpaceOnUse" x1="318.3347" y1="498.8078" x2="681.6653" y2="498.8078">
					<stop  offset="0" style="stop-color:#3DDEED"/>
					<stop  offset="0.9966" style="stop-color:#CB00DD"/>
				</linearGradient>
				<path style="fill:url(#SVGID_00000013910459749031513490000005609024028825302408_);" d="M681.665,785.25H318.335L500,212.366
					L681.665,785.25z M322.608,782.122h354.785L500,222.715L322.608,782.122z"/>
			</g>
		</g>
		<g>
			<g>
				
					<linearGradient id="SVGID_00000014634836358612449810000009330453695256044676_" gradientUnits="userSpaceOnUse" x1="298.3371" y1="498.9955" x2="701.6639" y2="498.9955">
					<stop  offset="0" style="stop-color:#3DDEED"/>
					<stop  offset="0.9966" style="stop-color:#CB00DD"/>
				</linearGradient>
				<path style="fill:url(#SVGID_00000014634836358612449810000009330453695256044676_);" d="M701.664,794.023H298.337L500,203.968
					L701.664,794.023z M302.712,790.895h394.577L500,213.641L302.712,790.895z"/>
			</g>
		</g>
		<g>
			<g>
				
					<linearGradient id="SVGID_00000163751534737280597530000009935367904242169484_" gradientUnits="userSpaceOnUse" x1="276.1164" y1="499.1706" x2="723.8836" y2="499.1706">
					<stop  offset="0" style="stop-color:#3DDEED"/>
					<stop  offset="0.9966" style="stop-color:#CB00DD"/>
				</linearGradient>
				<path style="fill:url(#SVGID_00000163751534737280597530000009935367904242169484_);" d="M723.884,803.068H276.116L500,195.273
					L723.884,803.068z M280.603,799.94h438.793L500,204.324L280.603,799.94z"/>
			</g>
		</g>
		<g>
			<g>
				
					<linearGradient id="SVGID_00000109711436467338655810000012379439746879753148_" gradientUnits="userSpaceOnUse" x1="251.4302" y1="499.3343" x2="748.5698" y2="499.3343">
					<stop  offset="0" style="stop-color:#3DDEED"/>
					<stop  offset="0.9966" style="stop-color:#CB00DD"/>
				</linearGradient>
				<path style="fill:url(#SVGID_00000109711436467338655810000012379439746879753148_);" d="M748.57,812.393H251.43l0.849-2.142
					L500,186.275L748.57,812.393z M256.037,809.265h487.925L500,194.754L256.037,809.265z"/>
			</g>
		</g>
		<g>
			<g>
				
					<linearGradient id="SVGID_00000031208983390898909850000003501258313140616839_" gradientUnits="userSpaceOnUse" x1="223.9996" y1="499.4865" x2="776.0004" y2="499.4865">
					<stop  offset="0" style="stop-color:#3DDEED"/>
					<stop  offset="0.9966" style="stop-color:#CB00DD"/>
				</linearGradient>
				<path style="fill:url(#SVGID_00000031208983390898909850000003501258313140616839_);" d="M776,822.007H224L500,176.966
					L776,822.007z M228.741,818.878h542.518L500,184.919L228.741,818.878z"/>
			</g>
		</g>
		<g>
			<g>
				
					<linearGradient id="SVGID_00000029045622289486654060000003424010005395464376_" gradientUnits="userSpaceOnUse" x1="193.523" y1="499.6284" x2="806.477" y2="499.6284">
					<stop  offset="0" style="stop-color:#3DDEED"/>
					<stop  offset="0.9966" style="stop-color:#CB00DD"/>
				</linearGradient>
				<path style="fill:url(#SVGID_00000029045622289486654060000003424010005395464376_);" d="M806.477,831.917H193.523L500,167.339
					L806.477,831.917z M198.411,828.789h603.178L500,174.81L198.411,828.789z"/>
			</g>
		</g>
		<g>
			<g>
				
					<linearGradient id="SVGID_00000142134972878060353380000007944603587093149375_" gradientUnits="userSpaceOnUse" x1="159.6614" y1="499.761" x2="840.3386" y2="499.761">
					<stop  offset="0" style="stop-color:#3DDEED"/>
					<stop  offset="0.9966" style="stop-color:#CB00DD"/>
				</linearGradient>
				<path style="fill:url(#SVGID_00000142134972878060353380000007944603587093149375_);" d="M840.339,842.135H159.661L500,157.387
					L840.339,842.135z M164.71,839.006h670.579L500,164.416L164.71,839.006z"/>
			</g>
		</g>
		<g>
			<g>
				
					<linearGradient id="SVGID_00000128447496404352710880000015365843643019990183_" gradientUnits="userSpaceOnUse" x1="122.039" y1="499.8845" x2="877.961" y2="499.8845">
					<stop  offset="0" style="stop-color:#3DDEED"/>
					<stop  offset="0.9966" style="stop-color:#CB00DD"/>
				</linearGradient>
				<path style="fill:url(#SVGID_00000128447496404352710880000015365843643019990183_);" d="M877.961,852.668H122.039L500,147.101
					L877.961,852.668z M127.263,849.539h745.474L500,153.727L127.263,849.539z"/>
			</g>
		</g>
		<g>
			<g>
				
					<linearGradient id="SVGID_00000074414710781013747140000011070849720122818688_" gradientUnits="userSpaceOnUse" x1="80.2362" y1="500.0001" x2="919.7638" y2="500.0001">
					<stop  offset="0" style="stop-color:#3DDEED"/>
					<stop  offset="0.9966" style="stop-color:#CB00DD"/>
				</linearGradient>
				<path style="fill:url(#SVGID_00000074414710781013747140000011070849720122818688_);" d="M919.764,863.526H80.236L500,136.474
					L919.764,863.526z M85.654,860.398h828.692L500,142.73L85.654,860.398z"/>
			</g>
		</g>
	</g>
</g>
</svg>
