<svg version="1.1" id="Layer_1" xmlns="http://www.w3.org/2000/svg" xmlns:xlink="http://www.w3.org/1999/xlink" x="0px" y="0px"
	 width="100%" viewBox="0 0 1024 1024" enable-background="new 0 0 1024 1024" xml:space="preserve">
<path fill="#C1C2C4" opacity="1.000000" stroke="none" 
	d="
M1025.000000,1.500000 
	C683.969055,2.005892 342.938080,2.011784 1.453565,2.008838 
	C1.166667,1.666667 1.315919,1.056198 1.502793,1.044456 
	C2.830883,0.961004 4.166667,1.000000 5.500000,1.000000 
	C345.333344,1.000000 685.166687,1.000000 1025.000000,1.500000 
z"/>
<path fill="#33EBEF" opacity="1.000000" stroke="none" 
	d="
M522.288574,482.329834 
	C523.205139,483.040222 524.121765,483.750610 525.565369,484.836823 
	C533.356506,490.261658 540.620667,495.310699 548.067261,500.628845 
	C554.792419,505.105713 561.335022,509.313477 568.106323,513.750244 
	C570.713867,515.298157 573.092773,516.617004 575.650757,518.035156 
	C575.650757,504.496796 575.650757,491.705933 575.726929,478.458710 
	C575.805237,461.066162 575.768677,444.129761 575.850281,427.193939 
	C575.862915,424.572723 576.029419,421.836273 576.784180,419.353577 
	C581.379395,404.238678 598.115967,398.328918 614.076233,406.396667 
	C615.751587,407.824585 617.304077,408.949738 619.009888,410.389648 
	C623.031006,415.015930 624.393738,420.103210 624.361877,425.836334 
	C624.253845,445.273987 624.354065,464.712646 624.307678,484.150757 
	C624.275940,497.434113 624.132446,510.717224 623.671509,524.017212 
	C621.426086,525.713867 618.952026,527.080566 617.854248,529.170288 
	C616.940125,530.910522 616.718811,534.391846 617.817871,535.528198 
	C620.163025,537.953064 622.568726,536.178711 624.586914,533.762817 
	C627.661926,533.566589 630.328430,533.269287 633.008545,533.317505 
	C632.679688,535.689758 632.337219,537.716431 631.543152,539.877808 
	C621.767029,539.124756 612.442566,538.236938 602.817932,537.188843 
	C590.007141,531.457397 577.496460,525.886169 564.712097,520.092896 
	C553.265869,512.380798 542.166809,504.778442 530.905029,497.425110 
	C509.915894,483.720398 489.150391,469.631317 467.679626,456.720398 
	C452.532166,447.611877 435.823242,441.855988 417.585022,440.017212 
	C411.933228,439.465027 406.686279,439.027161 401.035675,438.555634 
	C401.035675,433.320740 400.988678,428.351135 401.045441,423.382751 
	C401.163910,413.008026 407.264618,404.429352 417.187927,401.112335 
	C420.302399,400.071320 423.675354,399.803497 427.296082,399.313354 
	C429.776184,399.672089 431.890228,399.899231 434.258423,400.365021 
	C438.985779,403.624939 444.143951,405.984558 447.812805,409.782806 
	C463.182068,425.694153 477.887695,442.247559 493.292694,458.122986 
	C499.951721,464.985382 507.717407,470.773834 515.152100,477.332031 
	C517.645447,479.185883 519.966980,480.757874 522.288574,482.329834 
z"/>
<path fill="#2FE6ED" opacity="1.000000" stroke="none" 
	d="
M716.186096,527.073059 
	C719.534119,523.620056 723.346619,520.854492 721.234497,514.605957 
	C719.600586,509.772003 724.234497,504.648163 729.289551,503.994019 
	C734.531860,503.315643 739.506042,507.253693 740.192322,512.625793 
	C740.865051,517.891113 737.478333,522.944092 732.112000,523.213196 
	C728.098267,523.414490 726.030457,525.282288 723.737793,528.096069 
	C720.289917,532.327576 716.296509,536.114624 712.053467,540.511169 
	C699.249695,551.864929 685.086853,559.543396 669.124878,564.740906 
	C652.058899,569.472534 635.271851,568.936462 618.242188,565.566406 
	C606.842773,561.485962 595.633423,557.608093 584.177368,553.470337 
	C574.115295,547.717773 564.112610,542.530151 554.534119,536.651428 
	C543.829651,530.081604 533.510010,522.884766 522.832153,515.683044 
	C517.827820,512.122559 513.065491,508.761505 508.191650,505.570801 
	C487.145294,491.792694 465.982697,478.093140 442.105499,469.680511 
	C432.831421,466.412994 422.858643,465.128510 413.090637,462.674988 
	C412.650085,462.268738 412.323059,462.128174 411.653320,461.819122 
	C410.309662,461.556549 409.308655,461.462463 408.307678,461.368347 
	C376.671204,458.024170 348.423981,466.704987 323.131683,485.582092 
	C321.876770,486.518677 320.985931,488.748505 320.964172,490.389893 
	C320.878174,496.881683 316.833588,501.374298 310.636444,501.321228 
	C304.834381,501.271545 300.494080,496.579254 301.026428,490.931854 
	C301.583313,485.024231 306.900757,481.267151 313.167328,481.864044 
	C315.152100,482.053070 317.672546,481.541687 319.244110,480.390320 
	C336.720886,467.585938 355.914429,458.965729 378.268372,455.702911 
	C384.398438,455.100708 389.703979,454.610382 395.457886,454.246094 
	C406.268646,455.553192 416.630951,456.734314 427.329834,458.098267 
	C433.195312,460.071167 438.797363,461.664093 444.240753,463.684570 
	C470.811340,473.547028 494.407959,488.808380 517.802368,504.426758 
	C532.459961,514.212341 547.145447,523.956238 562.053223,533.928101 
	C571.718323,539.162598 581.148499,544.187927 590.839111,549.469360 
	C602.994934,553.292603 614.890381,556.859741 627.159241,560.590454 
	C640.895142,562.635010 654.141785,562.644226 667.504883,558.281494 
	C680.394226,554.365356 691.965698,548.698853 702.413330,540.159180 
	C707.219177,535.716003 711.702637,531.394531 716.186096,527.073059 
z"/>
<path fill="#2FE7ED" opacity="1.000000" stroke="none" 
	d="
M640.480591,592.133423 
	C628.923340,590.174377 617.829102,588.149109 606.105652,585.736572 
	C591.135986,578.749695 576.261169,573.089844 562.587830,565.316589 
	C544.817505,555.214294 528.002197,543.431885 510.512207,532.133789 
	C502.725006,526.920044 495.286896,521.809753 487.660828,516.997192 
	C469.313660,505.418976 450.357330,495.083832 428.892273,489.212738 
	C415.925293,485.502350 403.095032,483.946716 389.983612,485.212799 
	C368.086884,487.002106 349.384033,496.146027 333.112976,510.457123 
	C327.153870,515.698425 321.895630,521.736633 315.745544,527.694214 
	C313.987854,526.871765 312.802277,525.766357 311.616699,524.661011 
	C311.616699,524.661011 311.949829,524.920349 311.938232,524.788208 
	C311.926636,524.656128 312.218689,524.405273 312.218689,524.405273 
	C312.218689,524.405273 312.111023,524.008667 312.111023,524.008667 
	C334.278412,494.987213 363.252289,479.045044 400.967346,478.261414 
	C406.307312,478.709503 410.810974,478.881531 415.235046,479.566925 
	C438.944366,483.239960 460.270630,493.083862 480.598358,505.324890 
	C491.826813,512.086548 502.844696,519.197754 514.130493,526.437378 
	C519.516052,530.289551 524.604004,534.056824 529.965210,537.383728 
	C545.052002,546.745911 560.251282,555.926941 575.651550,565.450378 
	C588.592529,570.860901 601.288208,576.000427 614.282837,581.369019 
	C637.980835,587.986755 661.069458,587.754944 684.069458,578.300049 
	C694.711731,572.645142 705.040344,567.095459 715.272827,561.373840 
	C716.336670,560.778931 717.105286,559.257690 717.532715,558.003357 
	C718.523254,555.096436 719.220825,552.089783 720.037109,549.123535 
	C721.258362,548.626831 722.471252,548.108093 723.702454,547.637390 
	C727.912964,546.027893 731.643433,546.967224 734.551453,550.254700 
	C737.624146,553.728333 738.045654,557.831421 735.630981,561.793396 
	C733.362183,565.515991 729.711609,567.613525 725.461914,566.132385 
	C722.081055,564.954102 720.014160,566.061462 717.450623,567.845703 
	C694.474121,583.837402 669.185425,592.648376 640.480591,592.133423 
z"/>
<path fill="#2CEAEF" opacity="1.000000" stroke="none" 
	d="
M400.606384,523.980896 
	C400.381500,522.390747 400.156616,520.800537 399.888824,518.906921 
	C387.497986,524.838196 377.370239,532.821472 369.693970,544.673950 
	C359.344391,561.394531 353.962494,578.997986 353.124390,598.474976 
	C354.170502,610.993347 355.310852,623.052734 356.451202,635.112122 
	C366.883087,679.344482 391.047882,714.542358 426.946320,741.945129 
	C428.184631,742.890503 430.556335,742.992981 432.213684,742.632568 
	C438.271301,741.315186 443.814117,744.706360 444.885803,750.732178 
	C445.841339,756.104980 441.774658,761.434692 436.210480,762.101746 
	C429.972961,762.849609 424.555573,758.573242 425.055298,752.385559 
	C425.366852,748.527344 423.280548,747.148743 420.952423,745.343262 
	C382.449554,715.486755 358.024384,676.857483 348.539124,628.952454 
	C347.548645,623.950195 346.819641,618.896301 345.983856,612.973022 
	C346.238983,605.393860 346.479584,598.707886 346.838379,591.611267 
	C349.525757,569.785461 356.550720,550.136902 370.313049,532.885559 
	C380.471954,521.329346 392.928711,513.895996 407.328613,508.967194 
	C408.108215,509.027252 408.554260,509.042633 408.983063,509.424988 
	C406.179321,514.521606 403.392853,519.251282 400.606384,523.980896 
z"/>
<path fill="#2CE9EF" opacity="1.000000" stroke="none" 
	d="
M650.241455,524.761719 
	C654.458130,520.793396 658.674744,516.825134 663.307007,512.376343 
	C671.427307,501.881226 675.886108,490.426605 678.792847,477.899231 
	C678.973633,476.877319 679.020874,476.180450 679.055969,475.472351 
	C679.043823,475.461121 679.070251,475.450836 679.229919,475.245361 
	C679.490234,474.364197 679.590942,473.688507 679.824036,472.603394 
	C680.320862,468.130493 680.685303,464.067047 681.191589,459.612244 
	C680.291077,446.959625 679.248779,434.698334 678.206421,422.437073 
	C674.357422,400.578430 664.811035,381.095551 652.875488,362.703369 
	C641.267700,344.816040 626.882507,329.386169 610.151123,316.151978 
	C608.173279,314.587585 606.606567,313.604523 603.574280,314.719147 
	C597.721130,316.870697 591.897461,312.949158 590.820068,306.995880 
	C589.789673,301.302582 593.410645,296.218872 599.085999,295.390717 
	C604.573303,294.590057 610.518616,298.956024 610.425720,304.703888 
	C610.365845,308.412506 612.179199,309.979675 614.506287,311.852875 
	C648.436646,339.165009 672.307495,373.215210 683.356995,415.650726 
	C685.443909,423.665405 686.269409,432.008514 687.739502,441.064270 
	C689.261902,460.527374 686.250916,478.487427 679.855347,496.277710 
	C675.936096,503.295807 672.237732,510.031616 668.289429,516.953064 
	C666.611877,518.880493 665.184265,520.622314 663.454346,522.548279 
	C661.342163,524.451233 659.532288,526.170044 657.425781,527.970703 
	C655.699829,529.177856 654.270630,530.303284 652.511780,531.579773 
	C646.387085,534.325378 640.591980,536.919983 634.442627,539.511353 
	C633.390503,539.586365 632.692627,539.664734 631.994751,539.743103 
	C632.337219,537.716431 632.679688,535.689758 633.318848,533.121399 
	C639.157532,529.973755 644.699524,527.367737 650.241455,524.761719 
z"/>
<path fill="#2CE9EF" opacity="1.000000" stroke="none" 
	d="
M701.830200,448.986481 
	C703.960571,408.400543 689.716187,373.367676 665.325012,341.836914 
	C664.475464,340.738617 662.352173,340.144623 660.819458,340.138855 
	C654.136902,340.113800 649.668091,336.141571 649.788391,329.976044 
	C649.899536,324.284546 654.691589,319.974823 660.362427,320.466339 
	C666.369873,320.987061 669.776489,325.966766 669.317444,332.585999 
	C669.168701,334.729523 670.035645,337.416595 671.373779,339.120087 
	C696.468872,371.067657 709.029541,407.323761 708.805908,447.911957 
	C708.682861,470.238281 703.623352,491.458496 692.913757,511.891907 
	C691.192993,514.922729 689.761597,517.366272 688.106934,520.016357 
	C686.483826,522.170959 685.083984,524.119141 683.401245,526.265015 
	C682.180908,526.928284 681.243591,527.393799 680.128296,527.554871 
	C678.885071,526.331421 677.819885,525.412415 676.762756,524.500427 
	C677.615845,523.225342 678.246826,522.282166 679.136047,521.164551 
	C682.827393,515.316162 686.260620,509.642334 689.886902,503.654053 
	C697.917603,486.069519 703.031860,468.210693 701.830200,448.986481 
z"/>
<path fill="#2CE9EF" opacity="1.000000" stroke="none" 
	d="
M372.017151,563.700378 
	C375.362427,563.766113 375.811920,565.436279 375.505493,568.560059 
	C372.270294,601.538391 378.882721,632.298340 396.898193,661.003174 
	C397.382690,661.767456 397.661133,661.978638 397.939575,662.189819 
	C397.919800,662.488708 398.012085,662.747681 398.529480,663.380859 
	C402.545380,668.580017 406.248199,673.365051 409.951019,678.150146 
	C410.689911,679.053650 411.428772,679.957153 412.440125,680.974976 
	C422.438782,692.615112 433.874878,702.207886 446.411102,710.489014 
	C447.702759,711.342285 450.127014,711.387390 451.650482,710.812622 
	C456.148682,709.115967 459.870728,709.924622 462.897461,713.470154 
	C465.899994,716.987305 466.359070,721.021729 463.998322,725.042603 
	C461.741058,728.887146 458.092285,730.467834 453.790558,729.594727 
	C449.043823,728.631348 446.512115,725.485535 445.818420,720.581787 
	C445.587524,718.949585 444.508423,716.917725 443.176666,716.036682 
	C410.003754,694.092651 386.201355,664.983582 374.164612,625.937378 
	C369.401154,610.150818 368.105774,594.653809 368.164459,578.582458 
	C368.587830,574.562805 368.666077,570.919006 369.303436,567.375793 
	C369.545288,566.031372 371.074646,564.918701 372.017151,563.700378 
z"/>
<path fill="#2BE6EE" opacity="1.000000" stroke="none" 
	d="
M660.873047,466.984192 
	C659.996521,442.139069 652.753479,419.255341 639.380676,397.973999 
	C632.231262,385.186218 622.462646,374.934875 612.080627,365.352295 
	C604.769104,358.603760 596.698547,352.653564 588.728210,346.664551 
	C587.253174,345.556122 584.512207,345.367889 582.575317,345.782257 
	C576.826965,347.011963 571.054016,343.729767 569.981506,338.143188 
	C568.894409,332.480682 572.508301,327.420990 578.237000,326.584869 
	C583.779968,325.775818 589.001465,329.673096 589.149292,335.524445 
	C589.231018,338.757690 590.738892,340.183075 592.968140,341.770691 
	C618.978394,360.293884 640.819519,382.487335 654.261902,411.975006 
	C656.255798,416.348938 657.870239,420.895782 659.843445,426.061401 
	C665.564331,442.706299 667.399841,459.254486 667.935364,476.442566 
	C667.540466,481.792419 667.244080,486.697754 666.917419,492.104706 
	C664.561768,491.664825 662.704468,491.317993 660.873047,490.976013 
	C660.873047,482.746216 660.873047,474.865204 660.873047,466.984192 
z"/>
<path fill="#2CEAEF" opacity="1.000000" stroke="none" 
	d="
M341.953735,683.074158 
	C328.251770,653.953308 323.063416,623.327332 326.560608,591.394592 
	C329.511536,564.449829 339.792175,540.489929 357.716522,519.598999 
	C358.893219,520.471069 359.922638,521.233887 361.372192,522.431274 
	C360.211090,525.576782 358.629852,528.287781 356.756317,531.175110 
	C345.477814,546.575500 337.817535,563.244751 334.369324,582.168945 
	C333.530701,594.684082 332.860199,606.847351 332.189667,619.010620 
	C333.226501,640.043091 338.409851,660.059692 346.621613,679.566345 
	C343.071625,678.530518 341.732727,679.742859 341.953735,683.074158 
z"/>
<path fill="#32EBEE" opacity="1.000000" stroke="none" 
	d="
M341.975433,683.053711 
	C341.732727,679.742859 343.071625,678.530518 346.655212,679.938110 
	C353.671204,690.672668 360.310669,701.357788 366.996368,712.013794 
	C368.391113,714.236755 369.937836,715.332214 373.115814,714.693359 
	C378.668945,713.577026 383.813995,718.566895 383.947815,724.362854 
	C384.077423,729.976074 379.508881,734.650269 373.942932,734.599182 
	C368.117493,734.545654 362.862213,729.530396 364.112396,723.966248 
	C365.047607,719.803894 363.174927,717.685120 361.198914,714.880310 
	C356.330231,707.969666 351.733734,700.867371 346.984314,693.106567 
	C345.273102,689.258789 343.605347,686.146545 341.937622,683.034363 
	C341.937622,683.034363 341.997131,683.033325 341.975433,683.053711 
z"/>
<path fill="#2BE6EE" opacity="1.000000" stroke="none" 
	d="
M311.344696,524.842590 
	C312.802277,525.766357 313.987854,526.871765 315.567230,527.982422 
	C316.106049,529.692322 315.989716,531.470215 316.443726,533.088074 
	C317.978577,538.557434 315.246399,543.729858 309.910461,545.091858 
	C304.289520,546.526672 298.943451,543.388672 297.635254,537.886597 
	C296.345825,532.463440 299.929810,527.001465 305.438507,526.006653 
	C307.314514,525.667847 309.194519,525.351013 311.344696,524.842590 
z"/>
<path fill="#2CEAEF" opacity="1.000000" stroke="none" 
	d="
M341.969910,683.401001 
	C343.605347,686.146545 345.273102,689.258789 346.943909,692.757080 
	C345.298737,690.018066 343.650452,686.892883 341.969910,683.401001 
z"/>
<path fill="#2BE6EE" opacity="1.000000" stroke="none" 
	d="
M311.930328,524.120850 
	C312.111023,524.008667 312.218689,524.405273 312.218689,524.405273 
	C312.218689,524.405273 311.926636,524.656128 311.779419,524.649048 
	C311.632233,524.641968 311.749634,524.233093 311.930328,524.120850 
z"/>
<path fill="#2CE9EF" opacity="1.000000" stroke="none" 
	d="
M623.671631,524.017212 
	C624.128357,526.935059 624.217651,529.869690 624.242798,533.233032 
	C622.568726,536.178711 620.163025,537.953064 617.817871,535.528198 
	C616.718811,534.391846 616.940125,530.910522 617.854248,529.170288 
	C618.952026,527.080566 621.426086,525.713867 623.671631,524.017212 
z"/>
<path fill="#32EBEE" opacity="1.000000" stroke="none" 
	d="
M400.467834,524.432373 
	C403.392853,519.251282 406.179321,514.521606 409.368683,509.264465 
	C414.404999,508.655334 419.293701,507.575134 423.623383,508.681793 
	C435.968567,511.837189 448.711548,514.548462 460.140198,519.904846 
	C475.550293,527.127136 489.879700,536.655212 504.864807,545.477600 
	C523.651184,557.942383 541.799561,570.891296 560.993835,582.039490 
	C574.216248,589.719177 588.887451,594.904419 602.911133,601.204529 
	C609.887939,603.247131 616.864746,605.289673 624.099609,607.407837 
	C624.099609,618.760254 624.743347,630.276245 623.949036,641.692139 
	C622.752075,658.895813 600.953125,667.885132 585.328796,657.827026 
	C581.761841,655.530823 578.672668,652.290100 575.863281,649.050659 
	C547.384277,616.212097 518.876404,583.396667 490.675293,550.320068 
	C480.551483,538.445984 468.239716,530.154297 453.213562,524.321167 
	C451.533905,523.706299 450.499573,523.370300 449.049133,522.899170 
	C449.180420,524.898376 449.284882,526.488892 449.389343,528.079407 
	C449.321014,556.198608 449.252991,584.317749 449.184052,612.436951 
	C449.167725,619.093506 448.541962,625.814880 449.244659,632.394470 
	C451.297852,651.618042 430.181732,663.332703 412.584900,654.320068 
	C404.670898,650.266724 400.247345,643.670715 400.233490,634.714294 
	C400.176727,598.104309 400.283020,561.493958 400.467834,524.432373 
z"/>
</svg>